<?xml version="1.0" encoding="UTF-8"?>
<svg width="442px" height="481px" viewBox="0 0 442 481" version="1.1" xmlns="http://www.w3.org/2000/svg" xmlns:xlink="http://www.w3.org/1999/xlink">
    <!-- Generator: Sketch 51.1 (57501) - http://www.bohemiancoding.com/sketch -->
    <title>icon-consumable</title>
    <desc>Created with Sketch.</desc>
    <defs></defs>
    <g id="Page-1" stroke="none" stroke-width="1" fill="none" fill-rule="evenodd">
        <path d="M340.603967,202.2577 C328.996967,197.9047 260.806967,215.3147 231.789967,219.6677 C202.772967,224.0197 134.581967,212.4137 134.581967,212.4137 L138.934967,173.2407 C138.934967,173.2407 181.009967,176.1417 202.772967,179.0437 C224.535967,181.9457 302.881967,171.7897 327.545967,176.1417 C352.210967,180.4947 352.210967,206.6097 340.603967,202.2577 M373.973967,183.3957 C375.424967,168.8877 434.910967,119.5577 410.245967,77.4837 C401.539967,65.8767 347.858967,65.8767 334.800967,62.9747 C347.858967,29.6047 331.898967,-12.4693 299.979967,3.4897 C268.061967,19.4497 227.437967,71.6797 214.378967,73.1307 C207.853967,73.8557 180.449967,69.8647 153.443967,55.7207 C126.410967,41.5627 99.7709673,17.2627 82.3519673,36.8597 C59.6029673,62.4517 66.3919673,110.8527 112.819967,164.5347 C77.9989673,161.6327 14.1619673,157.2807 2.55396727,171.7897 C-9.05203273,186.2977 33.0229673,231.2747 25.7679673,254.4887 C66.3919673,234.1757 79.4499673,206.6097 109.917967,213.8647 C107.015967,235.6277 107.015967,244.3327 85.2529673,273.3487 C63.4909673,302.3667 22.8669673,431.4927 121.524967,463.4117 C220.182967,495.3307 227.437967,469.2147 275.315967,469.2147 C323.193967,469.2147 371.072967,505.4867 417.498967,447.4527 C463.926967,389.4187 439.262967,261.7427 373.973967,183.3957" id="icon-consumable" fill="#000000"></path>
    </g>
</svg>