<?xml version="1.0" encoding="UTF-8"?>
<svg width="463px" height="481px" viewBox="0 0 463 481" version="1.1" xmlns="http://www.w3.org/2000/svg" xmlns:xlink="http://www.w3.org/1999/xlink">
    <!-- Generator: Sketch 51.1 (57501) - http://www.bohemiancoding.com/sketch -->
    <title>icon-one-hand</title>
    <desc>Created with Sketch.</desc>
    <defs></defs>
    <g id="Page-1" stroke="none" stroke-width="1" fill="none" fill-rule="evenodd">
        <path d="M460.068,243.576939 C456.4,248.485939 443.655,279.429939 428.949,286.776939 C414.231,294.135939 333.351,354.190939 318.644,360.308939 C303.938,366.436939 256.15,367.679939 250.021,375.026939 C243.893,382.374939 137.268,480.409939 137.268,480.409939 C137.268,480.409939 105.506,462.378939 71.039,426.959939 L93.171,398.332939 L118.572,365.472939 C119.769,363.943939 118.239,361.815939 116.4,362.436939 L113.197,363.533939 L39.077,389.045939 C23.816,367.944939 9.863,343.219939 0,314.959939 C0,314.959939 123.78,241.427939 128.69,226.720939 C133.6,212.014939 134.808,174.045939 134.808,174.045939 C134.808,174.045939 126.241,131.122939 139.717,109.067939 C153.193,87.0149389 191.195,63.7409389 191.195,63.7409389 L207.786,68.9169389 L243.129,82.7249389 C243.129,82.7249389 202.222,107.538939 200.383,109.378939 C198.543,111.218939 204.527,128.551939 212.008,128.828939 C215.685,128.964939 250.822,108.561939 260.059,102.900939 C303.503,160.297939 306.088,198.537939 306.088,205.895939 C306.088,213.243939 289.243,222.685939 256.449,229.790939 C231.403,235.220939 195.617,166.453939 195.617,166.453939 C195.617,166.453939 172.876,173.834939 177.93,183.964939 C204.472,237.104939 229.33,252.597939 240.823,257.662939 C252.304,262.716939 333.074,240.130939 333.362,215.271939 C333.994,161.222939 276.885,78.2809389 267.698,70.9229389 C261.115,65.6579389 239.389,56.4889389 228.073,52.6329389 C234.313,46.3819389 234.451,46.1969389 243.981,37.0109389 C248.758,32.4109389 253.634,27.7779389 258.334,23.4229389 C270.38,12.2409389 281.174,2.97493886 285.552,1.22393886 C297.82,-3.68506114 334.592,7.35293886 343.17,13.4819389 C351.737,19.6099389 354.197,66.1799389 354.197,66.1799389 C354.197,66.1799389 377.47,57.5909389 383.61,61.2689389 C389.739,64.9489389 418.831,87.3249389 420.072,94.6729389 C421.291,102.030939 415.472,137.272939 415.472,137.272939 C415.472,137.272939 427.652,138.791939 432.617,142.637939 C439.299,147.801939 449.473,170.354939 450.704,176.482939 C451.945,182.622939 438.767,210.805939 438.767,210.805939 C438.767,210.805939 455.414,219.472939 458.373,222.752939 C464.191,229.180939 463.758,238.667939 460.068,243.576939" id="icon-one-hand" fill="#000000"></path>
    </g>
</svg>