<?xml version="1.0" encoding="UTF-8"?>
<svg width="500px" height="486px" viewBox="0 0 500 486" version="1.1" xmlns="http://www.w3.org/2000/svg" xmlns:xlink="http://www.w3.org/1999/xlink">
    <!-- Generator: Sketch 51.1 (57501) - http://www.bohemiancoding.com/sketch -->
    <title>icon-chest</title>
    <desc>Created with Sketch.</desc>
    <defs></defs>
    <g id="Page-1" stroke="none" stroke-width="1" fill="none" fill-rule="evenodd">
        <path d="M366.1602,237.2224 C343.7152,237.2224 303.7032,230.3824 289.5252,219.2424 C270.7772,204.5124 270.2722,140.6774 274.0262,129.8224 C274.9482,127.1574 276.5552,126.5974 277.7402,126.5974 C281.3702,126.5974 284.3252,129.3684 307.1122,188.8684 C308.2772,191.9114 309.2712,194.5064 310.0272,196.4494 C314.3482,198.3054 322.0132,201.2934 330.7672,204.7064 C381.7952,224.5984 384.3922,226.8724 384.3922,230.5224 C384.3922,236.4614 374.6482,237.2224 366.1602,237.2224 Z M308.4132,422.2194 C294.4702,422.2194 264.3562,418.2604 257.9312,409.1094 C254.8972,404.8334 252.4302,400.7034 250.5982,395.6934 C248.7522,400.7124 246.2822,404.8434 243.2472,409.1204 C236.8312,418.2594 206.7172,422.2194 192.7732,422.2194 C189.3922,422.2194 186.6702,422.0114 184.6842,421.5994 C180.3402,420.6984 179.4282,418.5644 179.4282,416.9324 C179.4282,413.7854 182.4262,412.2914 196.5892,405.7504 C205.3502,401.7054 216.2532,396.6704 223.3422,391.9354 C230.5382,387.1474 234.9552,374.4334 238.5042,364.2174 C242.0832,353.9114 244.4492,347.1044 249.5842,347.1044 L251.6022,347.1044 C256.7432,347.1044 259.1082,353.9254 262.6892,364.2494 C266.2282,374.4544 270.6342,387.1564 277.7892,391.9354 C284.8922,396.6604 295.7882,401.6894 304.5442,405.7294 C318.7512,412.2844 321.7582,413.7824 321.7582,416.9324 C321.7582,421.5784 315.3442,422.2194 308.4132,422.2194 Z M135.0262,237.2224 C126.5372,237.2224 116.7932,236.4604 116.7932,230.5224 C116.7932,226.8724 119.3902,224.5984 170.4182,204.7064 C179.1732,201.2934 186.8372,198.3054 191.1582,196.4494 C191.9142,194.5054 192.9082,191.9104 194.0732,188.8684 C216.8612,129.3684 219.8162,126.5974 223.4452,126.5974 C224.6302,126.5974 226.2372,127.1574 227.1592,129.8224 C230.9132,140.6764 230.4092,204.5124 211.6602,219.2424 C197.4832,230.3824 157.4722,237.2224 135.0272,237.2224 L135.0262,237.2224 Z M249.5832,251.3914 L251.6022,251.3914 C256.7432,251.3914 259.1082,258.2124 262.6892,268.5374 C266.2282,278.7424 270.6332,291.4414 277.7882,296.2204 C284.8902,300.9464 295.7862,305.9754 304.5422,310.0164 C318.7492,316.5714 321.7572,318.0694 321.7572,321.2194 C321.7572,325.8734 315.3122,326.5164 308.3472,326.5164 C294.4112,326.5164 264.3252,322.5524 257.9252,313.3894 C254.8952,309.1184 252.4292,304.9884 250.5972,299.9794 C248.7522,304.9984 246.2812,309.1304 243.2472,313.4074 C236.8612,322.5524 206.7732,326.5164 192.8382,326.5164 C189.4392,326.5164 186.7022,326.3054 184.7042,325.8934 C180.3432,324.9904 179.4282,322.8524 179.4282,321.2194 C179.4282,318.0734 182.4262,316.5784 196.5902,310.0374 C205.3502,305.9924 216.2532,300.9564 223.3422,296.2204 C230.5382,291.4334 234.9542,278.7194 238.5032,268.5034 C242.0832,258.1994 244.4482,251.3914 249.5832,251.3914 Z M353.2362,0.0324 C332.7782,-1.3306 323.2312,40.9484 249.5842,40.9484 C175.9372,40.9484 166.3902,-1.3306 145.9322,0.0324 C125.4742,1.3964 0.0002,99.5934 0.0002,99.5934 C21.8222,175.9684 80.4672,216.8844 80.4672,216.8844 L80.4672,448.7374 C80.4672,448.7374 117.2912,485.5614 249.5842,485.5614 C381.8772,485.5614 418.7002,448.7374 418.7002,448.7374 L418.7002,216.8844 C418.7002,216.8844 477.3462,175.9684 499.1672,99.5934 C499.1672,99.5934 373.6932,1.3964 353.2362,0.0324 Z" id="icon-chest" fill="#000000"></path>
    </g>
</svg>