<?xml version="1.0" encoding="UTF-8"?>
<svg width="316px" height="486px" viewBox="0 0 316 486" version="1.1" xmlns="http://www.w3.org/2000/svg" xmlns:xlink="http://www.w3.org/1999/xlink">
    <!-- Generator: Sketch 51.1 (57501) - http://www.bohemiancoding.com/sketch -->
    <title>icon-helm</title>
    <desc>Created with Sketch.</desc>
    <defs></defs>
    <g id="Page-1" stroke="none" stroke-width="1" fill="none" fill-rule="evenodd">
        <path d="M266.357776,84.963 C243.923776,62.529 209.878776,50.109 180.986776,45.683 C174.493776,20.392 161.292776,0 157.205776,0 C153.117776,0 140.665776,20.438 134.564776,45.718 C105.722776,50.175 71.7997764,62.59 49.4267764,84.963 C-0.804223573,135.194 0.000776427469,169.776 0.000776427469,379.841 C42.5617764,449.863 72.4047764,485.561 72.4047764,485.561 C72.4047764,485.561 107.041776,383.416 94.6837764,301.037 C83.9047764,293.851 67.2677764,293.707 57.0537764,286.913 C51.6577764,283.323 48.0537764,270.003 48.0537764,270.003 C48.0537764,270.003 94.5037764,249.015 141.184776,250.388 L141.184776,388.025 C141.184776,388.025 144.162776,397.637 157.891776,397.637 C171.621776,397.637 174.598776,388.025 174.598776,388.025 L174.598776,250.388 C221.280776,249.015 267.730776,270.003 267.730776,270.003 C267.730776,270.003 263.502776,282.819 257.347776,286.913 C247.065776,293.753 231.406776,294.167 221.099776,301.037 C208.743776,383.416 243.378776,485.561 243.378776,485.561 C243.378776,485.561 273.221776,449.863 315.784776,379.841 C315.784776,169.776 316.587776,135.194 266.357776,84.963" id="icon-helm" fill="#000000"></path>
    </g>
</svg>