<?xml version="1.0" encoding="UTF-8"?>
<svg width="429px" height="486px" viewBox="0 0 429 486" version="1.1" xmlns="http://www.w3.org/2000/svg" xmlns:xlink="http://www.w3.org/1999/xlink">
    <!-- Generator: Sketch 51.1 (57501) - http://www.bohemiancoding.com/sketch -->
    <title>icon-boots</title>
    <desc>Created with Sketch.</desc>
    <defs></defs>
    <g id="Page-1" stroke="none" stroke-width="1" fill="none" fill-rule="evenodd">
        <path d="M405.5654,339.987 L371.7954,346.982 C371.7954,346.982 334.5274,328.349 259.9924,329.514 C255.8484,320.399 228.1104,282.977 212.4634,254.169 L212.4624,254.169 L143.5344,254.169 C136.2804,254.169 130.3644,248.263 130.3644,240.999 C130.3644,233.743 136.2804,227.828 143.5344,227.828 L201.8934,227.828 C201.8064,227.134 201.7684,226.478 201.7684,225.862 C201.7684,222.914 202.3274,217.22 203.2994,209.531 L137.7154,209.531 C130.4514,209.531 124.5444,203.625 124.5444,196.36 C124.5444,189.095 130.4514,183.189 137.7154,183.189 L206.9324,183.189 C207.7904,177.408 208.7244,171.271 209.6884,164.893 L131.8964,164.893 C124.6314,164.893 118.7254,158.977 118.7254,151.722 C118.7254,144.457 124.6314,138.551 131.8964,138.551 L213.7634,138.551 C214.7174,132.49 215.6804,126.353 216.6444,120.245 L131.8964,120.245 C124.6324,120.245 118.7254,114.339 118.7254,107.074 C118.7254,99.809 124.6324,93.903 131.8964,93.903 L220.7394,93.903 C226.5884,56.095 231.1644,24.666 229.7184,23.221 C226.2214,19.733 183.1344,27.884 145.8674,13.914 C108.5984,-0.066 71.3314,-8.217 7.2884,12.748 C7.2884,12.748 -22.9936,61.655 39.8924,230.516 C27.0784,289.915 4.9574,420.342 11.9424,442.474 C25.9124,459.941 114.4274,485.56 129.5644,485.56 C133.0614,479.741 144.7014,461.107 150.5304,461.107 C156.3494,461.107 209.9194,457.609 232.0504,462.273 C235.5384,472.756 235.5384,478.575 235.5384,478.575 C235.5384,478.575 341.5124,490.224 428.8624,405.206 C427.6964,355.133 405.5654,339.987 405.5654,339.987" id="icon-boots" fill="#000000"></path>
    </g>
</svg>