<?xml version="1.0" encoding="UTF-8"?>
<svg width="530px" height="457px" viewBox="0 0 530 457" version="1.1" xmlns="http://www.w3.org/2000/svg" xmlns:xlink="http://www.w3.org/1999/xlink">
    <!-- Generator: Sketch 51.1 (57501) - http://www.bohemiancoding.com/sketch -->
    <title>icon-two-hands</title>
    <desc>Created with Sketch.</desc>
    <defs></defs>
    <g id="Page-1" stroke="none" stroke-width="1" fill="none" fill-rule="evenodd">
        <path d="M230.317415,54.046 C233.301415,49.401 239.480415,48.052 244.127415,51.033 C245.114415,51.666 268.637415,66.874 297.614415,95.628 C324.350415,122.158 360.927415,165.747 383.351415,222.74 C385.374415,227.88 382.846415,233.685 377.707415,235.707 C376.504415,236.18 375.266415,236.404 374.048415,236.404 C370.058415,236.404 366.289415,234 364.740415,230.063 C343.668415,176.503 309.155415,135.323 283.914415,110.209 C256.379415,82.812 233.549415,68.009 233.322415,67.863 C228.679415,64.876 227.334415,58.691 230.317415,54.046 M226.529415,338.38 C225.429415,339.71 220.679415,344.33 213.789415,350.859 C201.599415,362.41 182.729415,379.96 165.489415,395.92 C143.849415,415.96 124.798415,433.479 124.798415,433.479 C124.798415,433.479 96.1294148,417.2 65.0294148,385.239 L36.1894148,351.04 C22.4194148,332 9.8294148,309.689 0.9394148,284.189 C0.9394148,284.189 112.619415,217.84 117.059415,204.569 C121.479415,191.3 122.569415,157.029 122.569415,157.029 C122.569415,157.029 114.839415,118.309 126.999415,98.399 C139.159415,78.5 173.449415,57.5 173.449415,57.5 L191.149415,63.029 C191.149415,63.029 247.548415,5.519 258.599415,1.099 C260.519415,0.33 263.099415,0 266.119415,0 C280.419415,0 304.179415,7.58 310.579415,12.149 C312.758415,13.71 314.489415,18.149 315.869415,23.739 C316.019415,24.359 316.169415,24.989 316.309415,25.639 C316.459415,26.279 316.599415,26.939 316.729415,27.609 C316.798415,27.939 316.869415,28.279 316.929415,28.609 C317.069415,29.29 317.189415,29.969 317.309415,30.66 C317.439415,31.349 317.559415,32.05 317.669415,32.75 C317.789415,33.45 317.899415,34.149 317.999415,34.849 C318.059415,35.229 318.119415,35.62 318.169415,36 C318.879415,40.84 319.399415,45.66 319.769415,49.679 C320.319415,55.55 320.539415,59.71 320.539415,59.71 C320.539415,59.71 325.819415,57.75 331.798415,56.229 C335.619415,55.25 339.729415,54.45 342.899415,54.45 C344.639415,54.45 346.099415,54.689 347.069415,55.279 C352.599415,58.59 378.849415,78.779 379.968415,85.42 C381.079415,92.05 375.819415,123.849 375.819415,123.849 C375.819415,123.849 386.809415,125.219 391.298415,128.689 C397.319415,133.359 406.508415,153.71 407.609415,159.239 C408.729415,164.769 396.839415,190.2 396.839415,190.2 C396.839415,190.2 411.859415,198.019 414.529415,200.979 C419.779415,206.779 419.389415,215.349 416.069415,219.779 C412.749415,224.21 401.249415,252.12 387.979415,258.759 C374.709415,265.389 301.718415,319.59 288.449415,325.109 C275.189415,330.63 232.059415,331.75 226.529415,338.38 Z M525.239015,223.8296 C530.499015,229.6296 530.099015,238.1886 526.779015,242.6196 C523.468015,247.0496 511.968015,274.9696 498.699015,281.5996 C485.419015,288.2386 412.439015,342.4296 399.169015,347.9496 C385.899015,353.4786 342.769015,354.5996 337.249015,361.2286 C331.718015,367.8586 235.508015,456.3186 235.508015,456.3186 C235.508015,456.3186 211.939015,442.9386 184.349015,416.6196 C201.739015,400.5286 220.819015,382.7896 233.059015,371.1796 C237.799015,366.6796 240.949015,363.6396 243.089015,361.5286 C248.079015,360.4596 257.019015,359.2496 262.809015,358.4696 C277.369015,356.5096 289.949015,354.8186 299.218015,350.9496 C308.279015,347.1886 324.659015,335.9996 359.889015,311.3586 C374.989015,300.7996 395.669015,286.3396 400.549015,283.7786 C417.269015,275.3896 427.789015,257.2896 437.129015,239.4596 C437.809015,238.1596 438.699015,236.4496 439.169015,235.6086 C450.299015,219.8086 448.729015,197.0686 435.319015,182.2286 C434.968015,181.8396 434.549015,181.3796 433.989015,180.8186 C433.419015,180.2596 432.709015,179.5986 431.789015,178.8396 C435.629015,167.7896 436.468015,160.6886 435.059015,153.6996 C433.499015,145.9096 428.439015,135.2996 426.329015,131.0986 C418.489015,115.4386 412.359015,109.5896 408.439015,106.5496 C407.899015,106.1296 407.349015,105.7286 406.789015,105.3486 C408.809015,88.1296 407.968015,83.0796 407.589015,80.8086 C405.809015,70.2596 399.239015,61.3186 383.319015,47.7786 C375.619015,41.2196 366.279015,34.1596 361.539015,31.3086 C361.039015,31.0096 360.529015,30.7196 360.008015,30.4386 C364.119015,27.0686 367.389015,24.7096 369.309015,23.9386 C380.369015,19.5096 413.549015,29.4696 421.289015,34.9996 C429.029015,40.5286 431.249015,82.5496 431.249015,82.5496 C431.249015,82.5496 452.249015,74.7996 457.789015,78.1196 C463.309015,81.4386 489.569015,101.6296 490.689015,108.2596 C491.789015,114.8986 486.539015,146.6996 486.539015,146.6996 C486.539015,146.6996 497.529015,148.0686 502.008015,151.5396 C508.039015,156.1996 517.218015,176.5496 518.329015,182.0796 C519.439015,187.6196 507.559015,213.0496 507.559015,213.0496 C507.559015,213.0496 522.569015,220.8696 525.239015,223.8296 Z" id="icon-two-hands" fill="#000000"></path>
    </g>
</svg>