<?xml version="1.0" encoding="UTF-8"?>
<svg width="250px" height="227px" viewBox="0 0 250 227" version="1.1" xmlns="http://www.w3.org/2000/svg" xmlns:xlink="http://www.w3.org/1999/xlink">
    <!-- Generator: Sketch 51.1 (57501) - http://www.bohemiancoding.com/sketch -->
    <title>brute</title>
    <desc>Created with Sketch.</desc>
    <defs></defs>
    <g id="Page-1" stroke="none" stroke-width="1" fill="none" fill-rule="evenodd">
        <g id="brute" fill="#231F20" fill-rule="nonzero">
            <path d="M154.928891,148.696691 C154.928891,148.696691 159.549514,190.848545 160.522276,210.982373 C167.249903,212.282021 176.329669,215.529193 176.977529,220.076013 C182.166245,222.096605 186.461965,220.97427 188.002821,220.076013 C190.191537,205.056017 182.166245,166.816747 194.487257,151.228764 C206.809241,135.640781 237.937646,128.496614 245.719747,109.98491 C252.946401,92.7972103 244.515467,55.1678197 249.504767,38.9582661 C249.767412,38.1057983 248.699319,37.4696137 248.05535,38.0863133 C230.755739,54.6612103 230.158463,86.2931245 224.318969,92.7738283 C215.320914,102.75988 179.328696,109.904047 162.06216,128.857086 C156.200292,135.291026 154.928891,148.696691 154.928891,148.696691" id="right-horn"></path>
            <path d="M123.91644,0.732635193 C119.082782,31.3191803 95.5827821,182.837296 99.8055447,210.982373 C108.641148,212.525584 113.424222,226.570356 124.773444,226.570356 C136.121693,226.570356 140.904767,212.525584 149.74037,210.982373 C153.963132,182.837296 130.46216,31.3191803 125.629475,0.732635193 C125.475778,-0.244536481 124.071109,-0.244536481 123.91644,0.732635193" id="center-horn"></path>
            <path d="M94.617607,148.696691 C94.617607,148.696691 89.9969844,190.848545 89.0242218,210.982373 C82.2956226,212.282021 73.2168288,215.529193 72.5679961,220.076013 C67.3802529,222.096605 63.0835603,220.97427 61.543677,220.076013 C59.3549611,205.056017 67.3802529,166.816747 55.0582685,151.228764 C42.736284,135.640781 11.6078794,128.496614 3.82577821,109.98491 C-3.40087549,92.7972103 5.03005837,55.1678197 0.0407587549,38.9582661 C-0.22188716,38.1057983 0.846206226,37.4696137 1.4901751,38.0863133 C18.789786,54.6612103 19.3870623,86.2931245 25.2265564,92.7738283 C34.2246109,102.75988 70.2168288,109.904047 87.4833658,128.857086 C93.3452335,135.291026 94.617607,148.696691 94.617607,148.696691" id="left-horn"></path>
        </g>
    </g>
</svg>