<?xml version="1.0" encoding="UTF-8"?>
<svg width="260px" height="229px" viewBox="0 0 260 229" version="1.1" xmlns="http://www.w3.org/2000/svg" xmlns:xlink="http://www.w3.org/1999/xlink">
    <!-- Generator: Sketch 51.1 (57501) - http://www.bohemiancoding.com/sketch -->
    <title>mindthief</title>
    <desc>Created with Sketch.</desc>
    <defs></defs>
    <g id="Page-1" stroke="none" stroke-width="1" fill="none" fill-rule="evenodd">
        <g id="mindthief" fill="#231F20" fill-rule="nonzero">
            <path d="M73.6994,228.449 C73.6994,228.449 94.7254,215.833 103.1364,199.012 C111.5484,182.189 108.9194,174.304 108.9194,174.304 C108.9194,174.304 124.1644,174.304 126.5294,158.534 C134.1514,164.843 145.4534,166.682 153.3394,161.951 C159.9094,166.682 180.2084,166.299 186.9814,154.854 C194.6034,141.975 190.2264,135.141 188.8214,131.988 C193.2904,133.302 196.7074,132.513 201.7004,130.411 C206.6944,133.302 226.6134,140.944 242.7034,129.622 C249.8004,124.629 256.1074,116.48 256.1074,106.492 C263.9934,95.453 257.4224,62.599 241.3884,56.553 C241.3884,49.72 220.0984,32.636 208.2714,32.898 C204.0664,25.539 194.6034,16.602 182.5134,16.602 C172.7884,6.089 154.9164,1.095 138.8834,3.461 C126.7924,-2.585 115.4904,0.569 108.3934,3.316 C96.5654,0.306 87.6294,2.672 81.5844,5.037 C65.8134,7.403 56.8784,12.66 53.1974,19.757 C34.2734,27.379 20.6064,41.572 20.0804,58.131 C9.5664,67.593 6.4134,77.844 8.5154,85.466 C-0.1576,93.614 -3.5746,107.281 4.8364,114.272 C1.6814,130.148 12.1954,140.136 25.8624,140.661 C-1.7356,159.586 49.5174,195.331 80.7964,193.228 C81.3214,199.8 80.0074,217.935 73.6994,228.449" id="brain"></path>
        </g>
    </g>
</svg>