<?xml version="1.0" encoding="UTF-8"?>
<svg width="206px" height="238px" viewBox="0 0 206 238" version="1.1" xmlns="http://www.w3.org/2000/svg" xmlns:xlink="http://www.w3.org/1999/xlink">
    <!-- Generator: Sketch 51.1 (57501) - http://www.bohemiancoding.com/sketch -->
    <title>scoundrel</title>
    <desc>Created with Sketch.</desc>
    <defs></defs>
    <g id="Page-1" stroke="none" stroke-width="1" fill="none" fill-rule="evenodd">
        <g id="scoundrel" transform="translate(0.000000, -1.000000)" fill="#010202" fill-rule="nonzero">
            <path d="M42.57,124.2217 L46.729,154.7247 C46.871,155.7607 46.594,156.8107 45.962,157.6427 L31.284,176.9537 C21.825,174.4337 11.359,177.6597 5.069,185.9357 C-3.034,196.5987 -1.21,211.6947 9.023,220.1457 C7.687,214.8207 7.956,209.2137 9.759,204.0677 C8.903,199.8637 9.78,195.3277 12.58,191.6437 C12.716,191.4647 12.863,191.2987 13.006,191.1277 C13.351,191.2267 13.697,191.3347 14.041,191.4597 C15.114,191.8497 16.112,192.3537 17.039,192.9417 C17.5,192.5117 17.971,192.0907 18.467,191.6887 C20.021,190.4267 21.696,189.3567 23.452,188.4707 L23.456,188.4727 C24.129,188.1327 24.81,187.8127 25.507,187.5297 L26.198,185.6257 C27.298,185.7217 28.393,185.9287 29.464,186.2627 C33.156,185.3677 37.024,185.2287 40.825,185.8837 C41.174,185.9447 41.524,186.0077 41.873,186.0797 C42.355,186.1827 42.838,186.2897 43.316,186.4197 C43.969,186.5957 44.608,186.8067 45.242,187.0287 C45.786,187.2217 46.323,187.4277 46.853,187.6497 L60.982,169.0587 C61.615,168.2267 62.552,167.6797 63.589,167.5377 L65.86,167.2287 L67.877,147.7837 L42.388,183.3617 C41.619,182.5957 40.806,181.8597 39.918,181.1847 C39.031,180.5097 38.111,179.9117 37.169,179.3737 L106.121,93.7837 C106.266,93.6017 106.541,93.8107 106.406,93.9997 L76.677,135.4977 L117.612,115.1377 L157.134,28.8217 C157.471,28.0857 157,27.3857 156.369,27.2157 C156.038,27.1257 155.664,27.1827 155.339,27.4567 L43.54,121.7017 C42.806,122.3217 42.441,123.2717 42.57,124.2217" id="Fill-1"></path>
            <path d="M30.0681,173.5967 L31.0281,172.3337 L33.7791,164.7637 C34.1361,163.7807 34.8691,162.9797 35.8171,162.5367 L39.9351,160.6147 L43.5731,155.8277 C43.7251,155.6267 43.7911,155.3787 43.7561,155.1297 L39.6991,125.3667 L23.8591,173.1157 C25.9141,173.0437 27.9951,173.2007 30.0681,173.5967" id="Fill-3"></path>
            <path d="M15.9138,155.3047 C16.3558,156.2517 16.4038,157.3367 16.0468,158.3197 L8.8278,178.1847 C11.3438,176.4077 14.1248,175.0817 17.0498,174.2277 L54.5428,79.4827 C54.6278,79.2667 54.9528,79.3837 54.8798,79.6047 L41.7018,119.3287 L72.2228,93.5997 L83.9778,2.3077 C84.1358,1.0837 82.5228,0.4967 81.8578,1.5367 L3.0678,124.7167 C2.5518,125.5257 2.4838,126.5417 2.8898,127.4107 L15.9138,155.3047 Z" id="Fill-5"></path>
            <path d="M140.57,128.6679 L57.24,200.3359 C56.673,199.4109 56.045,198.5109 55.342,197.6459 C54.64,196.7809 53.887,195.9819 53.099,195.2369 L140.343,128.3899 C140.528,128.2479 140.746,128.5159 140.57,128.6679 M45.767,225.3069 C40.2,229.8269 32.446,229.8139 26.922,225.7629 C33.703,225.1999 40.227,221.8779 44.67,216.0329 C47.107,212.8259 48.645,209.2169 49.328,205.5089 C53.14,211.9779 51.773,220.4289 45.767,225.3069 M24.007,203.6549 C24.389,206.1269 24.192,208.7219 23.277,211.2399 C22.68,212.8819 21.829,214.3559 20.789,215.6419 C20.155,211.4389 21.259,207.0669 24.007,203.6549 M40.079,198.4399 C40.759,202.4899 39.841,206.7969 37.159,210.3249 C35.754,212.1739 34.006,213.6009 32.08,214.6149 C32.099,214.5639 32.124,214.5149 32.143,214.4619 C34.108,209.0539 34.07,203.4109 32.424,198.3299 C34.956,197.7229 37.589,197.7669 40.079,198.4399 M204.667,75.4999 C204.418,75.4329 204.138,75.4509 203.857,75.5909 L72.934,140.7099 C72.076,141.1369 71.495,141.9749 71.396,142.9289 L68.22,173.5489 C68.112,174.5889 67.595,175.5439 66.784,176.2029 L47.954,191.4929 C39.36,186.8069 28.428,187.4649 20.359,194.0179 C9.696,202.6759 8.072,218.3389 16.73,229.0009 C25.388,239.6629 41.051,241.2879 51.714,232.6299 C59.784,226.0759 62.672,215.5129 59.847,206.1399 L78.677,190.8489 C79.489,190.1889 80.529,189.8799 81.57,189.9869 L112.19,193.1629 C113.144,193.2629 114.083,192.8659 114.676,192.1129 L205.279,77.3419 C205.849,76.6199 205.393,75.6959 204.667,75.4999" id="Fill-8"></path>
        </g>
    </g>
</svg>