<?xml version="1.0" encoding="UTF-8"?>
<svg width="250px" height="250px" viewBox="0 0 250 250" version="1.1" xmlns="http://www.w3.org/2000/svg" xmlns:xlink="http://www.w3.org/1999/xlink">
    <!-- Generator: Sketch 51.1 (57501) - http://www.bohemiancoding.com/sketch -->
    <title>spellweaver</title>
    <desc>Created with Sketch.</desc>
    <defs></defs>
    <g id="Page-1" stroke="none" stroke-width="1" fill="none" fill-rule="evenodd">
        <g id="spellweaver" fill="#231F20">
            <path d="M124.94,136.71 C122.224,147.574 124.035,159.344 130.373,168.397 C121.318,159.344 114.981,146.669 116.792,133.088 C114.981,134.899 113.17,135.805 110.454,137.615 C103.211,143.047 99.59,150.29 98.685,159.344 C98.685,146.669 103.211,133.088 113.17,124.94 C102.306,122.224 90.536,124.034 81.482,130.372 C90.536,121.318 103.211,114.981 116.792,116.792 C114.981,114.981 114.076,113.17 112.265,110.454 C106.833,103.211 99.59,99.59 90.536,98.685 C103.211,98.685 116.792,103.211 124.94,113.17 C127.656,102.306 125.845,90.536 119.508,81.482 C128.561,90.536 134.899,103.211 133.088,116.792 C134.899,114.981 136.71,114.075 139.425,112.265 C146.669,106.833 150.291,99.59 151.196,90.536 C151.196,103.211 146.669,116.792 136.71,124.94 C147.574,127.656 159.344,125.846 168.397,119.508 C159.344,128.562 146.669,134.899 133.088,133.088 C134.899,134.899 135.804,136.71 137.615,139.426 C143.047,146.669 150.291,150.29 159.344,151.195 C146.669,151.195 133.088,146.669 124.94,136.71 M249.88,157.533 C218.193,164.776 182.883,156.628 157.533,135.805 C193.748,124.034 221.814,94.157 236.299,59.754 C219.098,86.915 188.315,105.928 155.722,109.549 C172.019,75.145 172.924,34.403 157.533,0 C164.776,31.688 156.627,66.997 135.804,92.347 C124.035,56.133 94.158,28.066 59.754,13.58 C86.915,30.782 105.927,61.564 109.549,94.157 C75.145,77.861 34.404,76.956 0,92.347 C31.688,85.105 66.997,93.252 92.347,114.075 C56.132,125.846 28.066,155.723 13.58,190.126 C30.782,162.965 61.565,143.952 94.158,140.331 C77.861,174.735 76.956,215.477 92.347,249.88 C85.104,218.192 93.253,182.883 114.076,157.533 C125.845,193.748 155.722,221.814 190.127,236.3 C162.965,219.098 143.953,188.315 140.332,155.723 C174.735,172.019 215.476,172.924 249.88,157.533" id="Fill-1"></path>
        </g>
    </g>
</svg>