<?xml version="1.0" encoding="UTF-8"?>
<svg width="250px" height="250px" viewBox="0 0 250 250" version="1.1" xmlns="http://www.w3.org/2000/svg" xmlns:xlink="http://www.w3.org/1999/xlink">
    <!-- Generator: Sketch 51.1 (57501) - http://www.bohemiancoding.com/sketch -->
    <title>tinkerer</title>
    <desc>Created with Sketch.</desc>
    <defs></defs>
    <g id="Page-1" stroke="none" stroke-width="1" fill="none" fill-rule="evenodd">
        <g id="tinkerer" transform="translate(0.000000, -1.000000)" fill="#231F20" fill-rule="nonzero">
            <path d="M200.874,148.6381 C188.358,190.5081 144.112,214.3891 102.242,201.8731 C60.372,189.3571 36.49,145.1111 49.007,103.2411 C61.522,61.3711 105.769,37.4901 147.639,50.0051 C189.509,62.5221 213.39,106.7681 200.874,148.6381 M247.312,139.0041 L219.39,125.9691 C219.394,119.4481 218.723,113.0051 217.415,106.7351 L242.11,88.3011 C244.011,86.8831 244.363,83.8111 242.932,81.1581 L227.13,51.8811 C225.698,49.2291 222.936,47.8371 220.708,48.6481 L191.745,59.1751 C187.222,54.6401 182.204,50.5441 176.75,46.9691 L181.178,16.4731 C181.519,14.1271 179.596,11.7041 176.707,10.8411 L144.833,1.3141 C141.944,0.4501 139.008,1.4191 138.005,3.5681 L124.97,31.4911 C118.448,31.4861 112.006,32.1571 105.735,33.4651 L87.302,8.7691 C85.884,6.8691 82.812,6.5161 80.158,7.9491 L50.883,23.7491 C48.229,25.1811 46.839,27.9441 47.648,30.1711 L58.176,59.1341 C53.642,63.6591 49.545,68.6751 45.97,74.1291 L15.474,69.7011 C13.128,69.3621 10.706,71.2841 9.843,74.1721 L0.314,106.0471 C-0.549,108.9361 0.42,111.8721 2.568,112.8751 L30.491,125.9091 C30.486,132.4311 31.157,138.8731 32.466,145.1441 L7.77,163.5771 C5.87,164.9961 5.518,168.0681 6.949,170.7211 L22.75,199.9971 C24.183,202.6511 26.944,204.0411 29.173,203.2311 L58.135,192.7031 C62.659,197.2381 67.678,201.3321 73.131,204.9081 L68.703,235.4061 C68.362,237.7511 70.285,240.1741 73.174,241.0371 L105.048,250.5661 C107.936,251.4291 110.873,250.4591 111.876,248.3111 L124.912,220.3861 C131.433,220.3901 137.875,219.7221 144.145,218.4141 L162.579,243.1101 C163.997,245.0091 167.069,245.3631 169.722,243.9311 L198.998,228.1291 C201.651,226.6981 203.042,223.9351 202.232,221.7071 L191.704,192.7441 C196.239,188.2211 200.336,183.2031 203.911,177.7491 L234.406,182.1771 C236.753,182.5171 239.175,180.5951 240.038,177.7061 L249.566,145.8311 C250.43,142.9431 249.46,140.0061 247.312,139.0041" id="Fill-1"></path>
            <path d="M167.8291,138.7601 C160.7481,162.4471 135.8071,175.9081 112.1201,168.8281 C88.4331,161.7471 74.9711,136.8061 82.0521,113.1181 C89.1321,89.4321 114.0741,75.9701 137.7611,83.0511 C161.4471,90.1311 174.9091,115.0731 167.8291,138.7601 M144.0921,61.8701 C108.7651,51.3111 71.4321,71.4601 60.8721,106.7871 C50.3111,142.1151 70.4611,179.4481 105.7891,190.0081 C141.1161,200.5691 178.4481,180.4181 189.0091,145.0911 C199.5691,109.7631 179.4201,72.4311 144.0921,61.8701" id="Fill-4"></path>
        </g>
    </g>
</svg>